<svg class="svg" viewBox="0 0 87 87" fill="none" xmlns="http://www.w3.org/2000/svg">
    <path d="M69.2526 27.5749C68.1919 28.6326 67.1623 29.6591 67.1311 30.6856C67.0375 31.681 68.0983 32.7075 69.0966 33.6719C70.5941 35.2272 72.0605 36.627 71.9981 38.1512C71.9357 39.6755 70.3446 41.2619 68.7534 42.8172L55.8684 55.6955L51.4382 51.2783L64.6976 38.089L61.7026 35.1028L57.2724 39.4888L45.5729 27.8238L57.5532 15.9099C58.7699 14.6967 60.7978 14.6967 61.9522 15.9099L69.2526 23.1889C70.4693 24.3398 70.4693 26.3618 69.2526 27.5749ZM14 59.3349L43.8258 29.5658L55.5252 41.2308L25.6995 71H14V59.3349Z" fill="#3F517E"/>
    <line y1="85.5" x2="63" y2="85.5" stroke="#3F507E" stroke-width="3"/>
</svg>