<svg class="svg" viewBox="0 0 87 87" fill="none" xmlns="http://www.w3.org/2000/svg">
    <path d="M75.4555 60.5347V57.2926L79.4823 54.6989C79.8484 54.3747 80.2144 54.0505 79.8484 53.7263L76.1876 48.2147C76.1876 47.8905 75.4555 47.8905 75.0894 47.8905L70.6966 49.5115C69.5983 48.8631 68.5001 48.2147 67.4019 47.8905L66.6698 43.6757C66.6698 43.3515 66.3037 43.0273 65.9376 43.0273H58.6162C57.884 43.0273 57.518 43.3515 57.518 43.6757L56.7858 47.8905C55.6876 48.5389 54.9555 48.8631 53.8572 49.5115L49.4644 47.8905C49.0983 47.8905 48.7322 47.8905 48.3662 48.2147L44.7054 53.7263C44.7054 54.0505 44.7054 54.3747 45.0715 54.6989L49.0983 57.2926V60.5347L45.0715 63.1284C44.7054 63.4526 44.3394 63.7768 44.7054 64.101L48.3662 69.6126C48.7322 69.9368 49.0983 69.9368 49.4644 69.9368L53.8572 68.3157C54.5894 68.9642 55.6876 69.6126 56.7858 69.9368L57.518 74.1515C57.884 74.4757 58.2501 74.7999 58.6162 74.7999H65.9376C66.3037 74.7999 66.6698 74.4757 66.6698 74.1515L67.4019 69.9368C68.5001 69.2884 69.2323 68.9642 70.3305 68.3157L74.7234 69.6126C75.0894 69.6126 75.4555 69.6126 75.8216 69.2884L79.4823 63.7768C79.8484 63.4526 79.8484 63.1284 79.4823 63.1284L75.4555 60.5347ZM61.9108 63.4526C58.9823 63.4526 56.4197 61.1831 56.4197 58.5894C56.4197 55.9957 58.9823 53.7263 61.9108 53.7263C64.8394 53.7263 67.4019 55.9957 67.4019 58.5894C67.4019 61.1831 64.8394 63.4526 61.9108 63.4526ZM37.3474 65.0736H14.3214C10.258 65.0736 7 62.1557 7 58.5894V19.6842C7 16.0854 10.2946 13.2 14.3214 13.2H65.5716C69.635 13.2 72.893 16.1178 72.893 19.6842V38.0993C70.6233 37.1591 68.1707 36.4783 65.5716 36.1541V26.1684H14.3214V58.5894H36.2858C36.2858 60.8589 36.6885 63.0311 37.3474 65.0736Z" fill="#3F507E"/>
</svg>