
<svg class="svg" viewBox="0 0 87 87" fill="none" xmlns="http://www.w3.org/2000/svg">
    <path d="M65.6125 30.8125L70.6875 35.9237L47.0163 59.8125L34.4375 47.125L39.5125 42.0138L47.0163 49.5537L65.6125 30.8125ZM25.375 47.125L36.25 58H0V50.75C0 42.7388 12.9775 36.25 29 36.25L35.8512 36.6488L25.375 47.125ZM29 0C32.8456 0 36.5338 1.52767 39.253 4.24695C41.9723 6.96623 43.5 10.6544 43.5 14.5C43.5 18.3456 41.9723 22.0338 39.253 24.753C36.5338 27.4723 32.8456 29 29 29C25.1544 29 21.4662 27.4723 18.747 24.753C16.0277 22.0338 14.5 18.3456 14.5 14.5C14.5 10.6544 16.0277 6.96623 18.747 4.24695C21.4662 1.52767 25.1544 0 29 0Z" fill="#3F507E"/>
</svg>