
<svg class="svg" viewBox="0 0 59 59" fill="none" xmlns="http://www.w3.org/2000/svg">
    <path d="M0 0H49.1667V49.1667H0V0ZM52.4444 52.4444H59V59H52.4444V52.4444ZM52.4444 42.6111H59V49.1667H52.4444V42.6111ZM52.4444 32.7778H59V39.3333H52.4444V32.7778ZM52.4444 22.9444H59V29.5H52.4444V22.9444ZM52.4444 13.1111H59V19.6667H52.4444V13.1111ZM42.6111 52.4444H49.1667V59H42.6111V52.4444ZM32.7778 52.4444H39.3333V59H32.7778V52.4444ZM22.9444 52.4444H29.5V59H22.9444V52.4444ZM13.1111 52.4444H19.6667V59H13.1111V52.4444Z" fill="#3F507E"/>
</svg>