
<svg class="svg" viewBox="0 0 57 59" fill="none" xmlns="http://www.w3.org/2000/svg">
    <path d="M37.9763 46.2167C41.7484 46.2167 44.8219 43.1262 44.8219 39.3333C44.8219 35.5405 41.7484 32.45 37.9763 32.45C34.1764 32.45 31.1308 35.5405 31.1308 39.3333C31.1308 43.1262 34.1764 46.2167 37.9763 46.2167ZM52.5056 41.2438L56.6409 44.5029C57.0041 44.8119 57.1158 45.3176 56.8644 45.7671L52.9527 52.5662C52.7012 52.9876 52.2262 53.1562 51.7512 52.9876L46.8895 51.021C45.8836 51.8076 44.766 52.4538 43.5925 52.9595L42.8381 58.1571C42.7822 58.6348 42.3631 59 41.8881 59H34.0646C33.5617 59 33.1705 58.6348 33.0867 58.1571L32.3602 52.9595C31.1588 52.4538 30.0691 51.8076 29.0632 51.021L24.1735 52.9876C23.7544 53.1562 23.2236 52.9876 23 52.5662L19.0883 45.7671C18.8368 45.3176 18.9486 44.8119 19.3118 44.5029L23.4471 41.2438L23.3074 39.3333L23.4471 37.3948L19.3118 34.1638C18.9486 33.8548 18.8368 33.321 19.0883 32.8995L23 26.1005C23.2236 25.651 23.7544 25.4824 24.1735 25.651L29.0632 27.6457C30.0691 26.859 31.1588 26.1848 32.3602 25.7071L33.0867 20.4814C33.1705 20.0319 33.5617 19.6667 34.0646 19.6667H41.8881C42.3631 19.6667 42.7822 20.0319 42.8381 20.4814L43.5925 25.7071C44.766 26.1848 45.8836 26.859 46.8895 27.6457L51.7512 25.651C52.2262 25.4824 52.7012 25.651 52.9527 26.1005L56.8644 32.8995C57.1158 33.321 57.0041 33.8548 56.6409 34.1638L52.5056 37.3948L52.6453 39.3333L52.5056 41.2438ZM12.2428 17.0538C14.6736 17.0538 16.6295 15.0871 16.6295 12.6429C16.6295 10.1986 14.6736 8.20381 12.2428 8.20381C11.0719 8.20381 9.94906 8.67149 9.12115 9.50398C8.29324 10.3365 7.82813 11.4655 7.82813 12.6429C7.82813 15.0871 9.81193 17.0538 12.2428 17.0538ZM21.575 13.879L24.2853 15.9581C24.4809 16.1548 24.5368 16.4919 24.3691 16.7729L21.8545 21.1557C21.7147 21.4367 21.3795 21.549 21.1 21.4367L17.9707 20.1724L15.903 21.4086L15.3722 24.7519C15.3163 25.061 15.0648 25.2857 14.7575 25.2857H9.72811C9.39282 25.2857 9.14135 25.061 9.08547 24.7519L8.63842 21.4086L6.51491 20.1724L3.32965 21.4367C3.07818 21.549 2.77083 21.4367 2.60318 21.1557L0.0885045 16.7729C-0.0791408 16.4919 0.00468244 16.1548 0.228209 15.9581L2.88259 13.879L2.79877 12.6429L2.88259 11.4067L0.228209 9.32762C0.00468244 9.13095 -0.0791408 8.79381 0.0885045 8.51286L2.60318 4.13C2.77083 3.84905 3.07818 3.73667 3.32965 3.84905L6.48697 5.11333L8.63842 3.87714L9.08547 0.53381C9.14135 0.224762 9.39282 0 9.72811 0H14.7575C15.0648 0 15.3163 0.224762 15.3722 0.53381L15.903 3.87714L17.9707 5.11333L21.1 3.84905C21.3795 3.73667 21.7147 3.84905 21.8545 4.13L24.3691 8.51286C24.5368 8.79381 24.4809 9.13095 24.2853 9.32762L21.575 11.4067L21.6589 12.6429L21.575 13.879Z" fill="#3F507E"/>
</svg> 