
<svg class="svg" viewBox="0 0 69 58" fill="none" xmlns="http://www.w3.org/2000/svg">
    <path d="M32.6842 47.125C32.6842 35.1263 42.4532 25.375 54.4737 25.375C58.4321 25.375 62.1726 26.4625 65.3684 28.3113V25.375L57.8147 3.625C57.0884 1.5225 55.0547 0 52.6579 0H12.7105C10.3137 0 8.28 1.5225 7.55368 3.625L0 25.375V54.375C0 56.3688 1.63421 58 3.63158 58H7.26316C9.26053 58 10.8947 56.3688 10.8947 54.375V50.75H33.0111C32.8295 49.5537 32.6842 48.3575 32.6842 47.125ZM12.7105 5.4375H52.6579L58.1053 21.75H7.26316L12.7105 5.4375ZM12.7105 39.875C9.69632 39.875 7.26316 37.4463 7.26316 34.4375C7.26316 31.4288 9.69632 29 12.7105 29C15.7247 29 18.1579 31.4288 18.1579 34.4375C18.1579 37.4463 15.7247 39.875 12.7105 39.875ZM58.1053 58V50.75H43.5789V43.5H58.1053V36.25L69 47.125L58.1053 58Z" fill="#3F507E"/>
</svg>  