<svg width="159" height="159" viewBox="0 0 159 159" fill="none" xmlns="http://www.w3.org/2000/svg">
    <g filter="url(#filter0_d)">
    <circle cx="77.5" cy="77.5" r="74.5" stroke="#3F517E" stroke-opacity="0.69" stroke-width="2"/>
    </g>
    <g filter="url(#filter1_d)">
    <path d="M31 44V50.1875C31 67.3062 40.1634 82.28 53.8049 90.6125V110H116V101.75C116 90.7775 93.9 85.25 82.8293 85.25C82.8293 85.25 82.1244 85.25 81.7927 85.25C62.0976 85.25 45.5122 68.75 45.5122 50.1875V44H31ZM82.8293 44C78.4306 44 74.212 45.7384 71.1016 48.8327C67.9913 51.9271 66.2439 56.1239 66.2439 60.5C66.2439 64.8761 67.9913 69.0729 71.1016 72.1673C74.212 75.2616 78.4306 77 82.8293 77C87.228 77 91.4465 75.2616 94.5569 72.1673C97.6672 69.0729 99.4146 64.8761 99.4146 60.5C99.4146 56.1239 97.6672 51.9271 94.5569 48.8327C91.4465 45.7384 87.228 44 82.8293 44Z" fill="#3F507E"/>
    </g>
    <defs>
    <filter id="filter0_d" x="0" y="0" width="159" height="159" filterUnits="userSpaceOnUse" color-interpolation-filters="sRGB">
    <feFlood flood-opacity="0" result="BackgroundImageFix"/>
    <feColorMatrix in="SourceAlpha" type="matrix" values="0 0 0 0 0 0 0 0 0 0 0 0 0 0 0 0 0 0 127 0"/>
    <feOffset dx="2" dy="2"/>
    <feGaussianBlur stdDeviation="2"/>
    <feColorMatrix type="matrix" values="0 0 0 0 0 0 0 0 0 0 0 0 0 0 0 0 0 0 0.25 0"/>
    <feBlend mode="normal" in2="BackgroundImageFix" result="effect1_dropShadow"/>
    <feBlend mode="normal" in="SourceGraphic" in2="effect1_dropShadow" result="shape"/>
    </filter>
    <filter id="filter1_d" x="31" y="43" width="90" height="68" filterUnits="userSpaceOnUse" color-interpolation-filters="sRGB">
    <feFlood flood-opacity="0" result="BackgroundImageFix"/>
    <feColorMatrix in="SourceAlpha" type="matrix" values="0 0 0 0 0 0 0 0 0 0 0 0 0 0 0 0 0 0 127 0"/>
    <feOffset dx="4"/>
    <feGaussianBlur stdDeviation="0.5"/>
    <feColorMatrix type="matrix" values="0 0 0 0 0.257934 0 0 0 0 0.394546 0 0 0 0 0.745833 0 0 0 0.58 0"/>
    <feBlend mode="normal" in2="BackgroundImageFix" result="effect1_dropShadow"/>
    <feBlend mode="normal" in="SourceGraphic" in2="effect1_dropShadow" result="shape"/>
    </filter>
    </defs>
</svg> 