<svg width="159" height="159" viewBox="0 0 159 159" fill="none" xmlns="http://www.w3.org/2000/svg">
    <g filter="url(#filter0_d)">
    <circle cx="77.5" cy="77.5" r="74.5" stroke="#3F517E" stroke-opacity="0.69" stroke-width="2"/>
    </g>
    <g filter="url(#filter1_d)">
    <path d="M76.5 44C80.1744 44 83.6982 45.6784 86.2964 48.6661C88.8945 51.6537 90.3542 55.7059 90.3542 59.931C90.3542 64.1562 88.8945 68.2083 86.2964 71.196C83.6982 74.1836 80.1744 75.8621 76.5 75.8621C72.8256 75.8621 69.3018 74.1836 66.7036 71.196C64.1055 68.2083 62.6458 64.1562 62.6458 59.931C62.6458 55.7059 64.1055 51.6537 66.7036 48.6661C69.3018 45.6784 72.8256 44 76.5 44ZM48.7917 55.3793C51.0083 55.3793 53.0667 56.0621 54.8479 57.291C54.2542 63.8 55.9167 70.2634 59.3208 75.3159C57.3417 79.6855 53.3833 82.6897 48.7917 82.6897C45.6422 82.6897 42.6218 81.251 40.3948 78.6901C38.1678 76.1293 36.9167 72.6561 36.9167 69.0345C36.9167 65.4129 38.1678 61.9397 40.3948 59.3788C42.6218 56.818 45.6422 55.3793 48.7917 55.3793ZM104.208 55.3793C107.358 55.3793 110.378 56.818 112.605 59.3788C114.832 61.9397 116.083 65.4129 116.083 69.0345C116.083 72.6561 114.832 76.1293 112.605 78.6901C110.378 81.251 107.358 82.6897 104.208 82.6897C99.6167 82.6897 95.6583 79.6855 93.6792 75.3159C97.0833 70.2634 98.7458 63.8 98.1521 57.291C99.9333 56.0621 101.992 55.3793 104.208 55.3793ZM50.7708 102.034C50.7708 92.6124 62.2896 84.9655 76.5 84.9655C90.7104 84.9655 102.229 92.6124 102.229 102.034V110H50.7708V102.034ZM29 110V103.172C29 96.8455 36.4812 91.52 46.6146 89.9724C44.2792 93.0676 42.8542 97.3462 42.8542 102.034V110H29ZM124 110H110.146V102.034C110.146 97.3462 108.721 93.0676 106.385 89.9724C116.519 91.52 124 96.8455 124 103.172V110Z" fill="#3F507E"/>
    </g>
    <defs>
    <filter id="filter0_d" x="0" y="0" width="159" height="159" filterUnits="userSpaceOnUse" color-interpolation-filters="sRGB">
    <feFlood flood-opacity="0" result="BackgroundImageFix"/>
    <feColorMatrix in="SourceAlpha" type="matrix" values="0 0 0 0 0 0 0 0 0 0 0 0 0 0 0 0 0 0 127 0"/>
    <feOffset dx="2" dy="2"/>
    <feGaussianBlur stdDeviation="2"/>
    <feColorMatrix type="matrix" values="0 0 0 0 0 0 0 0 0 0 0 0 0 0 0 0 0 0 0.25 0"/>
    <feBlend mode="normal" in2="BackgroundImageFix" result="effect1_dropShadow"/>
    <feBlend mode="normal" in="SourceGraphic" in2="effect1_dropShadow" result="shape"/>
    </filter>
    <filter id="filter1_d" x="29" y="43" width="100" height="68" filterUnits="userSpaceOnUse" color-interpolation-filters="sRGB">
    <feFlood flood-opacity="0" result="BackgroundImageFix"/>
    <feColorMatrix in="SourceAlpha" type="matrix" values="0 0 0 0 0 0 0 0 0 0 0 0 0 0 0 0 0 0 127 0"/>
    <feOffset dx="4"/>
    <feGaussianBlur stdDeviation="0.5"/>
    <feColorMatrix type="matrix" values="0 0 0 0 0.257934 0 0 0 0 0.394546 0 0 0 0 0.745833 0 0 0 0.58 0"/>
    <feBlend mode="normal" in2="BackgroundImageFix" result="effect1_dropShadow"/>
    <feBlend mode="normal" in="SourceGraphic" in2="effect1_dropShadow" result="shape"/>
    </filter>
    </defs>
</svg>